<?xml version="1.0" ?><!DOCTYPE svg  PUBLIC '-//W3C//DTD SVG 1.1//EN'  'http://www.w3.org/Graphics/SVG/1.1/DTD/svg11.dtd'><svg enable-background="new 0 0 64 64" id="Layer_1" version="1.1" viewBox="0 0 64 64" xml:space="preserve" xmlns="http://www.w3.org/2000/svg" xmlns:xlink="http://www.w3.org/1999/xlink"><g><g><path d="M19.1,23.3c-0.3,0-0.5,0.2-0.5,0.5s0.2,0.5,0.5,0.5h14c0.3,0,0.5-0.2,0.5-0.5s-0.2-0.5-0.5-0.5H19.1z" fill="#4D4D4D"/><path d="M16.1,21.3h20c0.3,0,0.5-0.2,0.5-0.5s-0.2-0.5-0.5-0.5h-20c-0.3,0-0.5,0.2-0.5,0.5S15.9,21.3,16.1,21.3z" fill="#4D4D4D"/><path d="M27.2,49.9c-0.7,0-1.3,0.3-1.7,0.6c-0.4-0.3-1-0.6-1.7-0.6c-0.4,0-0.8,0.1-1.1,0.4     c-0.4,0.4-0.7,0.9-0.7,1.5c0,0.6,0.2,1.1,0.7,1.5l2.5,2.3c0.1,0.1,0.2,0.1,0.3,0.1c0.1,0,0.2,0,0.3-0.1l2.5-2.3     c0.4-0.4,0.7-1,0.7-1.5s-0.3-1.1-0.7-1.5C28,50,27.7,49.9,27.2,49.9z M27.7,52.6l-2.2,2l-2.2-2c-0.2-0.2-0.3-0.5-0.3-0.8     c0-0.3,0.1-0.6,0.4-0.8c0.1-0.1,0.3-0.2,0.4-0.2c0.4,0,0.9,0.2,1.4,0.6c0.2,0.2,0.5,0.2,0.7,0c0.7-0.6,1.5-0.8,1.8-0.5     c0.2,0.2,0.4,0.5,0.4,0.8C28,52.1,27.9,52.4,27.7,52.6z" fill="#4D4D4D"/><path d="M19.1,29.3c-0.3,0-0.5,0.2-0.5,0.5s0.2,0.5,0.5,0.5h14c0.3,0,0.5-0.2,0.5-0.5s-0.2-0.5-0.5-0.5H19.1z" fill="#4D4D4D"/><path d="M16.1,27.3h20c0.3,0,0.5-0.2,0.5-0.5s-0.2-0.5-0.5-0.5h-20c-0.3,0-0.5,0.2-0.5,0.5S15.9,27.3,16.1,27.3z" fill="#4D4D4D"/><path d="M19.1,37.3c-0.3,0-0.5,0.2-0.5,0.5s0.2,0.5,0.5,0.5h14c0.3,0,0.5-0.2,0.5-0.5s-0.2-0.5-0.5-0.5H19.1z" fill="#4D4D4D"/><path d="M16.1,35.3h20c0.3,0,0.5-0.2,0.5-0.5s-0.2-0.5-0.5-0.5h-20c-0.3,0-0.5,0.2-0.5,0.5S15.9,35.3,16.1,35.3z" fill="#4D4D4D"/><path d="M33.6,43.8c0-0.3-0.2-0.5-0.5-0.5h-14c-0.3,0-0.5,0.2-0.5,0.5s0.2,0.5,0.5,0.5h14     C33.4,44.3,33.6,44.1,33.6,43.8z" fill="#4D4D4D"/><path d="M36.6,40.8c0-0.3-0.2-0.5-0.5-0.5h-20c-0.3,0-0.5,0.2-0.5,0.5s0.2,0.5,0.5,0.5h20     C36.4,41.3,36.6,41.1,36.6,40.8z" fill="#4D4D4D"/><path d="M50,31.7C50,31.7,50.1,31.7,50,31.7l7.5-0.4c0.3,0,0.6-0.2,0.8-0.5l0.8-1.3c0,0,0-0.1,0-0.1l4.8-6.6     c0.2-0.3,0.3-0.7,0.1-1c-0.2-0.3-0.5-0.5-0.9-0.6L61,21.1l-2.5-4c-0.2-0.3-0.5-0.5-0.9-0.5l-5.4,0.2l-0.8-1.3     c-0.2-0.3-0.5-0.5-0.9-0.5c-0.4,0-0.7,0.3-0.9,0.6l-3.7,8.5c-0.1,0.3-0.1,0.6,0,0.9l2.5,4.9c-0.1,0.1-0.1,0.1-0.2,0.2l-2.8,4.7     l0-21.5h2.6c0.6,0,1-0.4,1-1V9.7c0-2.1-2.4-4.4-4.6-4.4H8.1c0,0-0.1,0-0.1,0c-2.1,0.3-3.9,3.1-3.9,4.9v0.1v44h-3     c-0.6,0-1,0.4-1,1v4.3c0,2.1,1.7,3.7,3.8,3.7h1.2h31h4h2c2.1,0,3.4-2.1,3.4-4l0-18.9l6.9,2.1c0.1,0,0.2,0,0.3,0     c0.1,0,0.3,0,0.4-0.1l5.6-2.7c0.4-0.2,0.6-0.6,0.6-1S59,38,58.6,37.8l-7.7-2.4c-0.2-0.1-0.5-0.1-0.7,0.1l-3.8,1.8l3.3-5.7     C49.8,31.7,49.9,31.7,50,31.7z M44.5,7.3c1.1,0,2.6,1.5,2.6,2.4v1.6h-2.6c0,0,0,0,0,0H13.1V9.7c0-0.8-0.4-1.6-1.1-2.4H44.5z      M2.1,59.6v-3.3h2v5H4C3,61.3,2.1,60.5,2.1,59.6z M42.1,61.3h-2h-4h-30v-51v-0.1c0-1,1.3-2.9,2.2-2.9h0c1.1,0,2.8,1.6,2.8,2.4     v2.6c0,0.6,0.4,1,1,1h31.4l0,24.9L31.7,58.7c-0.3,0.5-0.1,1.1,0.4,1.4c0.2,0.1,0.3,0.1,0.5,0.1c0.3,0,0.7-0.2,0.9-0.5l10.1-17.4     l0,17C43.5,60.2,43,61.3,42.1,61.3z M50.7,37.5l4.9,1.5l-3,1.4l-4.9-1.5L50.7,37.5z M58.3,27.1l-2.5-4.2l5.4,0.2L58.3,27.1z      M54.6,21l-0.4-0.6h1.4l0.5,0.6l-1.2,0C54.9,20.9,54.8,20.9,54.6,21z M57.1,18.6l1.5,2.4l-1.1,0l-1.3-1.6h-2.5l-0.4-0.6     L57.1,18.6z M50.7,18.2L57,28.9l-0.3,0.5l-6,0.3l-2.7-5.2L50.7,18.2z" fill="#4D4D4D"/></g></g></svg>